# xmcd
#
# Track frame offsets:
#	150
#	17094
#	35836
#	54400
#	68557
#	85177
#	102284
#	122999
#	140830
#
# Disc length: 2083 seconds
#
# Revision: 0
# Processed by: cddbd v1.5.2PL0 Copyright (c) Steve Scherf et al.
# Submitted via: EZCDAudioConverter 7.1.5.1
#
DISCID=7c082109
DTITLE=吉馬大對唱 - 吉馬大對唱 10 CD 典藏版
DYEAR=20110616
DGENRE=
TTITLE0=朋友情
TTITLE1=愛情的騙子我問你
TTITLE2=戀歌
TTITLE3=愛情一斤值外多
TTITLE4=媽媽請保重
TTITLE5=老兄行酒樓
TTITLE6=田庄兄哥
TTITLE7=初戀
TTITLE8=用生命所愛的人
EXTD=
EXTT0=
EXTT1=
EXTT2=
EXTT3=
EXTT4=
EXTT5=
EXTT6=
EXTT7=
EXTT8=
PLAYORDER=
